:FULLY-SPECIFIED
:FORCE-ALL-JOINTS-BE-3DOF
:DEGREES
985
root 1.11542 15.153 32.4948 5.37809 -4.67268 364.124
lfemur 8.69963 1.76851 5.16666
ltibia 3.49861e-14 0 0
lfoot -30.105 -11.7143 0
ltoes -33.8762 0 0
rfemur -32.9601 -15.4958 -6.26304
rtibia 50.8354 0 0
rfoot -22.6051 4.99797 0
rtoes -41.8972 0 0
lowerback -1.55952 -0.419402 0.711649
upperback -0.71732 -0.562807 -5.90918
thorax 0.0696762 -0.297417 -6.54228
lowerneck -6.66561 1.13655 5.87464
upperneck 1.06765 0.934706 3.32563
head 1.46878 0.569495 0.0806115
lclavicle -1.19271e-15 -1.90833e-14 0
lhumerus -58.3302 -45.1106 114.756
lradius 55.0431 0 0
lwrist 25.17 0 0
lhand 37.2967 24.4826 0
lfingers 7.12502 0 0
lthumb 60.119 38.1373 0
rclavicle -1.19271e-15 -1.90833e-14 0
rhumerus 3.74617 -25.0279 -0.173623
rradius 28.014 0 0
rwrist -11.3028 0 0
rhand -31.4609 -44.6274 0
rfingers 7.12502 0 0
rthumb -4.72817 -794.555 0
986
root 1.11548 15.153 32.4947 5.37712 -4.67044 364.123
lfemur 8.69929 1.76616 5.16777
ltibia 3.48912e-14 0 0
lfoot -30.1051 -11.7131 0
ltoes -33.8772 0 0
rfemur -32.9575 -15.4966 -6.26259
rtibia 50.8343 0 0
rfoot -22.6044 4.998 0
rtoes -41.8976 0 0
lowerback -1.55939 -0.418859 0.710721
upperback -0.716981 -0.562049 -5.90931
thorax 0.0700451 -0.29702 -6.54187
lowerneck -6.66654 1.13611 5.87549
upperneck 1.06877 0.933907 3.32607
head 1.4693 0.569162 0.0805843
lclavicle -1.18625e-15 -1.90693e-14 0
lhumerus -58.3308 -45.1132 114.757
lradius 55.0443 0 0
lwrist 25.1701 0 0
lhand 37.2967 24.4836 0
lfingers 7.12502 0 0
lthumb 60.119 38.1383 0
rclavicle -1.18625e-15 -1.90693e-14 0
rhumerus 3.74433 -25.0258 -0.172904
rradius 28.0132 0 0
rwrist -11.3007 0 0
rhand -31.4595 -44.624 0
rfingers 7.12502 0 0
rthumb -4.72683 -794.552 0
987
root 1.11567 15.153 32.4945 5.37428 -4.66388 364.12
lfemur 8.69829 1.75926 5.17103
ltibia 3.46127e-14 0 0
lfoot -30.1053 -11.7095 0
ltoes -33.88 0 0
rfemur -32.9499 -15.4989 -6.26125
rtibia 50.8311 0 0
rfoot -22.6025 4.9981 0
rtoes -41.8988 0 0
lowerback -1.55901 -0.417266 0.707998
upperback -0.715985 -0.559824 -5.90969
thorax 0.0711273 -0.295857 -6.54067
lowerneck -6.66927 1.13483 5.878
upperneck 1.07205 0.931561 3.32736
head 1.47084 0.568184 0.0805043
lclavicle -1.16731e-15 -1.90284e-14 0
lhumerus -58.3327 -45.1209 114.76
lradius 55.048 0 0
lwrist 25.1705 0 0
lhand 37.2967 24.4864 0
lfingers 7.12502 0 0
lthumb 60.119 38.1411 0
rclavicle -1.16731e-15 -1.90284e-14 0
rhumerus 3.73895 -25.0197 -0.170795
rradius 28.011 0 0
rwrist -11.2944 0 0
rhand -31.4554 -44.614 0
rfingers 7.12502 0 0
rthumb -4.72289 -794.542 0
988
root 1.11597 15.1531 32.4942 5.36967 -4.65321 364.114
lfemur 8.69666 1.74804 5.17632
ltibia 3.416e-14 0 0
lfoot -30.1058 -11.7036 0
ltoes -33.8845 0 0
rfemur -32.9376 -15.5027 -6.25908
rtibia 50.8259 0 0
rfoot -22.5993 4.99826 0
rtoes -41.9007 0 0
lowerback -1.55838 -0.414676 0.703572
upperback -0.714368 -0.556208 -5.91031
thorax 0.0728863 -0.293965 -6.53873
lowerneck -6.6737 1.13274 5.88208
upperneck 1.07737 0.92775 3.32946
head 1.47333 0.566594 0.0803744
lclavicle -1.13652e-15 -1.89618e-14 0
lhumerus -58.3358 -45.1334 114.765
lradius 55.0538 0 0
lwrist 25.1712 0 0
lhand 37.2967 24.491 0
lfingers 7.12502 0 0
lthumb 60.119 38.1457 0
rclavicle -1.13652e-15 -1.89618e-14 0
rhumerus 3.73019 -25.0097 -0.167366
rradius 28.0073 0 0
rwrist -11.2842 0 0
rhand -31.4488 -44.5977 0
rfingers 7.12502 0 0
rthumb -4.7165 -794.526 0
